<svg width="20" height="20" viewBox="0 0 20 20" fill="none" xmlns="http://www.w3.org/2000/svg">
    <g clip-path="url(#clip0)">
    <path d="M6.52778 1.37209L6.54498 1.3717L6.54654 1.39084L6.52466 1.39163L6.52778 1.37209Z" fill="#0BA25E"/>
    <path d="M6.46099 1.49939C6.47622 1.47751 6.50591 1.43376 6.52114 1.41189L6.54849 1.40759C6.5688 1.65525 6.64146 1.89392 6.69614 2.13494C6.9313 3.1822 7.1688 4.22869 7.41607 5.27283C7.57817 5.98884 7.75903 6.70134 7.90747 7.42009C8.03638 7.86502 8.10552 8.324 8.23013 8.7697C8.3106 9.18533 8.43677 9.5908 8.50435 10.0088C8.477 10.0545 8.44966 10.1006 8.42192 10.1463C8.41528 10.1568 8.40122 10.1787 8.39458 10.1896L8.38442 10.2072C8.38286 10.2103 8.37935 10.217 8.37739 10.2201C8.36216 10.2482 8.33169 10.3041 8.31646 10.3318C8.31372 10.3369 8.30786 10.347 8.30474 10.3521L8.277 10.4013C8.27349 10.4072 8.26685 10.4185 8.26372 10.4244L8.2313 10.481C8.22974 10.4842 8.22622 10.4904 8.22427 10.4935L8.18403 10.5638C8.18052 10.5697 8.17349 10.5822 8.16997 10.5885C8.16607 10.5951 8.15825 10.608 8.15435 10.6146L8.11489 10.6826C8.11177 10.6877 8.10552 10.6986 8.10239 10.7037L8.07817 10.7447C8.07427 10.7517 8.06567 10.7662 8.06177 10.7732C8.04614 10.8002 8.01528 10.8541 7.99966 10.8814C7.99692 10.8861 7.99107 10.8959 7.98833 10.901L7.96372 10.942C7.95982 10.9494 7.95122 10.9635 7.94692 10.9709C7.93247 10.9963 7.90278 11.0467 7.88833 11.072C7.88482 11.0779 7.87817 11.09 7.87466 11.0959L7.84536 11.1486C7.84263 11.1533 7.83716 11.1631 7.83442 11.1678L7.80435 11.2205C7.80122 11.226 7.79497 11.2369 7.79185 11.2424C7.77622 11.2681 7.74575 11.3201 7.73052 11.3463C7.727 11.3521 7.71997 11.3642 7.71646 11.3705L7.68872 11.4205C7.68599 11.4252 7.68091 11.4342 7.67857 11.4388L7.64653 11.4943C7.6438 11.4994 7.63794 11.5092 7.63521 11.5138C7.6188 11.542 7.58638 11.5978 7.56997 11.626C7.56724 11.631 7.56099 11.6412 7.55786 11.6463L7.53442 11.6849C7.53052 11.692 7.52232 11.7056 7.51841 11.7127C7.50356 11.7385 7.47427 11.7896 7.45942 11.8154C7.45708 11.8197 7.45161 11.8291 7.44927 11.8334L7.41724 11.8904C7.41489 11.8947 7.41021 11.9029 7.40786 11.9072L7.37505 11.9646C7.37231 11.9689 7.36685 11.9783 7.36411 11.9826C7.34888 12.0084 7.31802 12.0592 7.30278 12.0849C7.29849 12.0916 7.29067 12.1056 7.28638 12.1127L7.26333 12.1556C7.26021 12.1611 7.25435 12.172 7.25161 12.1771L7.21138 12.2467C7.20825 12.2525 7.20122 12.2642 7.1981 12.2701C7.19458 12.2756 7.18833 12.2869 7.18521 12.2924C7.11919 12.4037 7.05942 12.5185 6.98638 12.6256C6.57036 13.3041 6.18755 14.0037 5.78481 14.6904C5.13091 15.822 4.47778 16.9537 3.82388 18.0853C3.72583 18.2615 3.61411 18.4303 3.52974 18.6142C3.52544 18.6205 3.51685 18.633 3.51255 18.6392C3.35591 18.4135 3.23481 18.1642 3.09146 17.9299C2.43755 16.7974 1.78325 15.6654 1.12974 14.5326C0.766455 13.8955 0.387939 13.2662 0.0344238 12.6232C1.43442 10.2072 2.82817 7.78689 4.22544 5.36931C4.22661 5.36697 4.22935 5.36267 4.23052 5.36033L4.2688 5.2947C4.27036 5.29197 4.27349 5.2865 4.27544 5.28376L4.31411 5.21775C4.31763 5.21189 4.32466 5.19939 4.32856 5.19353C4.33247 5.1865 4.34028 5.17283 4.34419 5.1658L4.38286 5.09705C4.3856 5.09236 4.39107 5.08298 4.3938 5.0783L4.42271 5.0322C4.42778 5.02478 4.43794 5.00955 4.44302 5.00173C4.45708 4.98064 4.4856 4.93806 4.50005 4.91697C4.50161 4.90994 4.50435 4.89627 4.50591 4.88962L4.53989 4.82439C4.54146 4.82166 4.54458 4.81619 4.54614 4.81345L4.58521 4.74783C4.58911 4.74158 4.59692 4.7283 4.60083 4.72166C4.60513 4.71423 4.61372 4.699 4.61841 4.69119L4.65122 4.63377C4.65474 4.62752 4.66177 4.61541 4.66528 4.60955L4.69263 4.5615C4.69575 4.55642 4.702 4.54548 4.70513 4.54001C4.72036 4.51384 4.75083 4.4615 4.76646 4.43533C4.76958 4.42986 4.77583 4.41892 4.77896 4.41345L4.80747 4.3615C4.80981 4.35759 4.8145 4.349 4.81685 4.34509L4.85435 4.27947C4.85903 4.27166 4.8688 4.25564 4.87388 4.24783L4.89927 4.20955C4.90474 4.20173 4.91528 4.1865 4.92075 4.17908C4.92544 4.17127 4.93521 4.15564 4.94028 4.14783L4.96138 4.1072C4.96841 4.09197 4.98286 4.0615 4.98989 4.04627L5.01138 4.01619C5.01528 4.01072 5.02271 4.00017 5.02661 3.9947C5.04106 3.98259 5.07036 3.95759 5.08481 3.94509L5.08208 3.89939C5.08442 3.89392 5.08989 3.88298 5.09263 3.87752L5.12583 3.8115C5.12856 3.80681 5.13403 3.79705 5.13677 3.79236L5.16606 3.7447C5.17153 3.73689 5.18208 3.72126 5.18755 3.71345C5.20083 3.69158 5.22778 3.64861 5.24106 3.62712C5.24497 3.61931 5.252 3.60408 5.25591 3.59626L5.27661 3.55134C5.28286 3.53962 5.29614 3.5158 5.30278 3.50369L5.32857 3.46697C5.33403 3.45955 5.34497 3.4447 5.35044 3.43728C5.35513 3.42947 5.36489 3.41384 5.36958 3.40603L5.38872 3.3658C5.39302 3.35681 5.402 3.33845 5.4063 3.32947L5.43989 3.26462C5.44497 3.25681 5.45474 3.24041 5.45942 3.2322L5.48521 3.19392C5.49067 3.18611 5.50161 3.17127 5.50708 3.16345C5.51216 3.15564 5.52192 3.13962 5.52661 3.13181L5.54653 3.09119C5.55239 3.07986 5.56372 3.05759 5.56919 3.04627L5.59575 3.00251C5.60044 2.99509 5.60982 2.98025 5.61489 2.97283C5.62896 2.95095 5.65747 2.9072 5.67192 2.88572C5.67349 2.87908 5.677 2.8658 5.67856 2.85916L5.71255 2.79431C5.71372 2.79158 5.71685 2.7865 5.71841 2.78376L5.75747 2.71697C5.76138 2.71033 5.7688 2.69744 5.77271 2.6908C5.77661 2.68455 5.78403 2.67126 5.78794 2.66501L5.827 2.59666C5.82856 2.59392 5.83169 2.58845 5.83325 2.58533L5.86997 2.52166C5.87192 2.51892 5.87544 2.51306 5.877 2.50994L5.91646 2.44353C5.91997 2.43728 5.927 2.42556 5.93052 2.41931C5.93442 2.41267 5.94224 2.399 5.94614 2.39197L5.98364 2.32595C5.98599 2.32166 5.99067 2.31345 5.99302 2.30955L6.02466 2.25837C6.02974 2.25095 6.03989 2.23572 6.04458 2.2283C6.05903 2.20681 6.08716 2.16384 6.10161 2.14236C6.10278 2.13572 6.10591 2.12244 6.10747 2.1158L6.14067 2.05212C6.14341 2.04744 6.14927 2.03767 6.152 2.03259L6.18169 1.98611C6.18716 1.97869 6.19731 1.96345 6.20278 1.95564C6.21645 1.93376 6.2438 1.89041 6.25747 1.86853C6.25942 1.86228 6.26294 1.84978 6.26489 1.84353L6.29927 1.77908C6.30083 1.77595 6.30396 1.77048 6.30552 1.76736L6.34536 1.70017C6.34849 1.69431 6.35552 1.68259 6.35903 1.67673C6.36255 1.67009 6.36958 1.65759 6.3731 1.65134L6.41216 1.58181C6.41411 1.57908 6.41724 1.57322 6.4188 1.57048L6.45591 1.50759C6.45708 1.50564 6.45981 1.50134 6.46099 1.49939Z" fill="#0BA25E"/>
    <path d="M6.54492 1.37034C7.81367 1.36448 9.08281 1.36956 10.352 1.36761C11.402 1.37152 12.4527 1.35941 13.5023 1.37347C13.523 1.41331 13.5441 1.45277 13.5664 1.49222C13.5695 1.4973 13.5754 1.50823 13.5785 1.5137C13.6801 1.69066 13.7832 1.86683 13.8836 2.04417C13.8855 2.0473 13.8887 2.05316 13.8906 2.05589C14.0852 2.38988 14.2789 2.72425 14.4699 3.06019C14.4715 3.06292 14.475 3.06839 14.4766 3.07152C14.5113 3.13128 14.5473 3.19105 14.5828 3.25121C14.5859 3.25628 14.5918 3.26683 14.5949 3.2723C14.6437 3.35824 14.693 3.44378 14.7426 3.52933C14.7445 3.53206 14.7477 3.53753 14.7492 3.54066C14.7988 3.62581 14.8477 3.71175 14.8969 3.79769C14.9 3.80277 14.9059 3.81292 14.909 3.818C14.9586 3.9016 15.0066 3.98597 15.0543 4.07035C15.0574 4.07542 15.0633 4.08597 15.0664 4.09105C15.5328 4.89652 15.998 5.70238 16.4629 6.50902C16.4098 6.74301 16.5383 6.97582 16.4668 7.21098C16.4234 7.85355 16.1809 8.47895 15.7809 8.98363C15.6508 9.12465 15.777 9.32035 15.7629 9.48754C15.6227 9.65746 15.4422 9.78442 15.2719 9.92153C15.2723 10.0497 15.2727 10.1778 15.2668 10.3063C15.1148 10.4067 14.9406 10.4649 14.7863 10.5618C14.7699 10.6137 14.7531 10.6661 14.7371 10.7188C14.6133 10.7774 14.4809 10.8153 14.357 10.8747C13.8668 10.734 13.3816 10.5774 12.8926 10.4325C12.4375 10.2821 11.9715 10.1641 11.5211 9.99848L11.4953 9.95238C11.493 9.94887 11.4891 9.94184 11.4871 9.93832L11.45 9.87543C11.4461 9.86879 11.4383 9.85551 11.4344 9.84887C11.4309 9.84301 11.4246 9.83168 11.4211 9.82582C11.3934 9.7766 11.368 9.72621 11.3453 9.67465L11.343 9.66957L11.3402 9.66566C11.323 9.63832 11.2883 9.58324 11.2707 9.5559C11.2687 9.55277 11.2648 9.54652 11.2629 9.54301L11.2516 9.52504C11.2449 9.51371 11.2312 9.49145 11.2246 9.48012C11.2078 9.4516 11.1738 9.39457 11.157 9.36606C11.1527 9.35902 11.1445 9.34457 11.1402 9.33754L11.1164 9.29691C11.1133 9.29145 11.107 9.2809 11.1039 9.27543L11.066 9.2102C11.0645 9.20746 11.0609 9.20199 11.0594 9.19887L11.0195 9.13051C11.016 9.12426 11.009 9.11176 11.0055 9.1059C11.0016 9.09887 10.9934 9.08441 10.9895 9.07738L10.957 9.02035C10.9531 9.01371 10.9453 8.99965 10.9414 8.99301L10.9164 8.94887C10.9129 8.94301 10.9062 8.93129 10.9027 8.92543C10.8875 8.89731 10.8566 8.84145 10.841 8.81332C10.8395 8.8102 10.8355 8.80356 10.834 8.80043L10.8234 8.78207C10.816 8.77113 10.8016 8.74926 10.7941 8.73832C10.7555 8.67348 10.7191 8.60707 10.6844 8.54027C10.6824 8.53715 10.6789 8.53051 10.6773 8.52738L10.6672 8.50941C10.6598 8.49887 10.6449 8.47777 10.6375 8.46762C10.6203 8.43676 10.5859 8.37504 10.5687 8.34418C10.5668 8.34105 10.5629 8.33441 10.5613 8.3309L10.5508 8.31215C10.543 8.29926 10.5277 8.27387 10.5199 8.26098L10.4863 8.20434C10.4832 8.19887 10.4766 8.18793 10.473 8.18207C10.4582 8.15629 10.4281 8.10434 10.4129 8.07855C10.4094 8.07269 10.4027 8.06059 10.3992 8.05434C10.3727 8.01019 10.3473 7.96566 10.3223 7.92113C10.3203 7.91762 10.316 7.91058 10.3141 7.90707L10.277 7.8434C10.273 7.83715 10.2656 7.82465 10.2621 7.81801C10.2586 7.81215 10.252 7.80043 10.2484 7.79457L10.209 7.72582C10.207 7.72269 10.2035 7.71605 10.2016 7.71293L10.1695 7.65551C10.1668 7.65082 10.1617 7.64183 10.159 7.63715C10.1441 7.61098 10.1141 7.55902 10.0992 7.53285C10.0961 7.52738 10.0898 7.51683 10.0867 7.51176C10.0625 7.47152 10.0383 7.4309 10.0148 7.39066C8.93164 5.51097 7.84687 3.63246 6.76133 1.75394C6.69336 1.63675 6.63164 1.51488 6.54844 1.40706L6.54648 1.38948L6.54492 1.37034Z" fill="#FCCD48"/>
    <path d="M6.52451 1.38909L6.54639 1.38831L6.54834 1.40588L6.521 1.41018L6.52451 1.38909Z" fill="#089156"/>
    <path d="M6.54834 1.40686C6.63154 1.51467 6.69326 1.63655 6.76123 1.75374C7.84678 3.63225 8.93154 5.51077 10.0147 7.39045C9.51319 8.26389 9.00772 9.13537 8.5042 10.008C8.43662 9.59006 8.31045 9.18459 8.22998 8.76897C8.10537 8.32326 8.03623 7.86428 7.90732 7.41936C7.75889 6.70061 7.57803 5.98811 7.41592 5.27209C7.16865 4.22795 6.93115 3.18147 6.696 2.1342C6.64131 1.89319 6.56865 1.65452 6.54834 1.40686Z" fill="#089156"/>
    <path d="M6.45581 1.50593C6.45713 1.50374 6.4602 1.4989 6.46152 1.4967C6.4602 1.4989 6.45713 1.50374 6.45581 1.50593Z" fill="#089156"/>
    <path d="M6.41211 1.58152C6.41406 1.57878 6.41719 1.57292 6.41875 1.57019C6.41719 1.57292 6.41406 1.57878 6.41211 1.58152Z" fill="#089156"/>
    <path d="M6.35889 1.6742C6.3624 1.66755 6.36943 1.65505 6.37295 1.6488C6.36943 1.65505 6.3624 1.66755 6.35889 1.6742Z" fill="#089156"/>
    <path d="M6.34521 1.69959C6.34834 1.69373 6.35537 1.68201 6.35889 1.67615C6.35537 1.68201 6.34834 1.69373 6.34521 1.69959Z" fill="#089156"/>
    <path d="M6.29907 1.77624C6.30064 1.77312 6.30376 1.76765 6.30532 1.76453C6.30376 1.76765 6.30064 1.77312 6.29907 1.77624Z" fill="#089156"/>
    <path d="M6.25732 1.86667C6.25928 1.86042 6.2628 1.84792 6.26475 1.84167C6.2628 1.84792 6.25928 1.86042 6.25732 1.86667Z" fill="#089156"/>
    <path d="M6.20264 1.95393C6.21631 1.93206 6.24365 1.8887 6.25733 1.86682C6.24365 1.8887 6.21631 1.93206 6.20264 1.95393Z" fill="#089156"/>
    <path d="M6.18164 1.98567C6.18711 1.97825 6.19727 1.96301 6.20273 1.9552C6.19727 1.96301 6.18711 1.97825 6.18164 1.98567Z" fill="#089156"/>
    <path d="M6.14062 2.05139C6.14336 2.0467 6.14922 2.03694 6.15195 2.03186C6.14922 2.03694 6.14336 2.0467 6.14062 2.05139Z" fill="#089156"/>
    <path d="M6.10156 2.13923C6.10273 2.13259 6.10586 2.11931 6.10742 2.11267C6.10586 2.11931 6.10273 2.13259 6.10156 2.13923Z" fill="#089156"/>
    <path d="M6.04443 2.22815C6.05889 2.20667 6.08701 2.1637 6.10146 2.14221C6.08701 2.1637 6.05889 2.20667 6.04443 2.22815Z" fill="#089156"/>
    <path d="M6.02466 2.25469C6.02974 2.24727 6.03989 2.23203 6.04458 2.22461C6.03989 2.23203 6.02974 2.24727 6.02466 2.25469Z" fill="#089156"/>
    <path d="M5.98364 2.32622C5.98599 2.32192 5.99067 2.31372 5.99302 2.30981C5.99067 2.31372 5.98599 2.32192 5.98364 2.32622Z" fill="#089156"/>
    <path d="M5.93042 2.41846C5.93433 2.41182 5.94214 2.39814 5.94605 2.39111C5.94214 2.39814 5.93433 2.41182 5.93042 2.41846Z" fill="#089156"/>
    <path d="M5.91626 2.44097C5.91978 2.43472 5.92681 2.423 5.93032 2.41675C5.92681 2.423 5.91978 2.43472 5.91626 2.44097Z" fill="#089156"/>
    <path d="M5.86987 2.52136C5.87182 2.51863 5.87534 2.51277 5.8769 2.50964C5.87534 2.51277 5.87182 2.51863 5.86987 2.52136Z" fill="#089156"/>
    <path d="M5.8269 2.59409C5.82847 2.59136 5.83159 2.58589 5.83316 2.58276C5.83159 2.58589 5.82847 2.59136 5.8269 2.59409Z" fill="#089156"/>
    <path d="M5.77271 2.68923C5.77661 2.68298 5.78404 2.6697 5.78794 2.66345C5.78404 2.6697 5.77661 2.68298 5.77271 2.68923Z" fill="#089156"/>
    <path d="M5.75732 2.71428C5.76123 2.70764 5.76866 2.69475 5.77256 2.68811C5.76866 2.69475 5.76123 2.70764 5.75732 2.71428Z" fill="#089156"/>
    <path d="M5.7124 2.79473C5.71357 2.79199 5.7167 2.78691 5.71826 2.78418C5.7167 2.78691 5.71357 2.79199 5.7124 2.79473Z" fill="#089156"/>
    <path d="M5.67188 2.88386C5.67344 2.87722 5.67695 2.86394 5.67851 2.8573C5.67695 2.86394 5.67344 2.87722 5.67188 2.88386Z" fill="#089156"/>
    <path d="M5.61475 2.9731C5.62881 2.95122 5.65732 2.90747 5.67178 2.88599C5.65732 2.90747 5.62881 2.95122 5.61475 2.9731Z" fill="#089156"/>
    <path d="M5.5957 2.99954C5.60039 2.99211 5.60977 2.97727 5.61484 2.96985C5.60977 2.97727 5.60039 2.99211 5.5957 2.99954Z" fill="#089156"/>
    <path d="M5.54639 3.09033C5.55225 3.079 5.56357 3.05674 5.56904 3.04541C5.56357 3.05674 5.55225 3.079 5.54639 3.09033Z" fill="#089156"/>
    <path d="M5.50708 3.16287C5.51216 3.15506 5.52192 3.13904 5.52661 3.13123C5.52192 3.13904 5.51216 3.15506 5.50708 3.16287Z" fill="#089156"/>
    <path d="M5.48511 3.19306C5.49058 3.18525 5.50152 3.17041 5.50699 3.1626C5.50152 3.17041 5.49058 3.18525 5.48511 3.19306Z" fill="#089156"/>
    <path d="M5.4397 3.26179C5.44478 3.25398 5.45454 3.23757 5.45923 3.22937C5.45454 3.23757 5.44478 3.25398 5.4397 3.26179Z" fill="#089156"/>
    <path d="M5.38867 3.36494C5.39297 3.35596 5.40195 3.3376 5.40625 3.32861C5.40195 3.3376 5.39297 3.35596 5.38867 3.36494Z" fill="#089156"/>
    <path d="M5.35034 3.43542C5.35503 3.42761 5.3648 3.41199 5.36948 3.40417C5.3648 3.41199 5.35503 3.42761 5.35034 3.43542Z" fill="#089156"/>
    <path d="M5.32837 3.46414C5.33384 3.45671 5.34477 3.44187 5.35024 3.43445C5.34477 3.44187 5.33384 3.45671 5.32837 3.46414Z" fill="#089156"/>
    <path d="M5.27661 3.54949C5.28286 3.53777 5.29614 3.51394 5.30278 3.50183C5.29614 3.51394 5.28286 3.53777 5.27661 3.54949Z" fill="#089156"/>
    <path d="M5.24097 3.62668C5.24487 3.61887 5.2519 3.60364 5.25581 3.59583C5.2519 3.60364 5.24487 3.61887 5.24097 3.62668Z" fill="#089156"/>
    <path d="M5.1875 3.71047C5.20078 3.6886 5.22773 3.64563 5.24102 3.62415C5.22773 3.64563 5.20078 3.6886 5.1875 3.71047Z" fill="#089156"/>
    <path d="M5.16602 3.74426C5.17148 3.73645 5.18203 3.72083 5.1875 3.71301C5.18203 3.72083 5.17148 3.73645 5.16602 3.74426Z" fill="#089156"/>
    <path d="M5.12573 3.80979C5.12847 3.8051 5.13394 3.79534 5.13667 3.79065C5.13394 3.79534 5.12847 3.8051 5.12573 3.80979Z" fill="#089156"/>
    <path d="M5.08203 3.8998C5.08437 3.89434 5.08984 3.8834 5.09258 3.87793C5.08984 3.8834 5.08437 3.89434 5.08203 3.8998Z" fill="#089156"/>
    <path d="M5.02661 3.99143C5.04028 3.9676 5.06802 3.91995 5.08208 3.89612L5.08481 3.94182C5.07036 3.95432 5.04106 3.97932 5.02661 3.99143Z" fill="#089156"/>
    <path d="M5.01123 4.0166C5.01514 4.01113 5.02256 4.00059 5.02647 3.99512C5.02256 4.00059 5.01514 4.01113 5.01123 4.0166Z" fill="#089156"/>
    <path d="M4.96118 4.10549C4.96821 4.09026 4.98267 4.05979 4.9897 4.04456C4.98267 4.05979 4.96821 4.09026 4.96118 4.10549Z" fill="#089156"/>
    <path d="M4.92065 4.17651C4.92534 4.1687 4.93511 4.15308 4.94019 4.14526C4.93511 4.15308 4.92534 4.1687 4.92065 4.17651Z" fill="#089156"/>
    <path d="M4.89917 4.20869C4.90464 4.20088 4.91519 4.18564 4.92065 4.17822C4.91519 4.18564 4.90464 4.20088 4.89917 4.20869Z" fill="#089156"/>
    <path d="M4.85425 4.27664C4.85894 4.26882 4.8687 4.25281 4.87378 4.245C4.8687 4.25281 4.85894 4.26882 4.85425 4.27664Z" fill="#089156"/>
    <path d="M4.80737 4.36064C4.80972 4.35674 4.8144 4.34814 4.81675 4.34424C4.8144 4.34814 4.80972 4.35674 4.80737 4.36064Z" fill="#089156"/>
    <path d="M4.76636 4.43447C4.76948 4.429 4.77573 4.41807 4.77886 4.4126C4.77573 4.41807 4.76948 4.429 4.76636 4.43447Z" fill="#089156"/>
    <path d="M4.69263 4.55994C4.69575 4.55486 4.702 4.54392 4.70513 4.53845C4.702 4.54392 4.69575 4.55486 4.69263 4.55994Z" fill="#089156"/>
    <path d="M4.65112 4.63347C4.65464 4.62722 4.66167 4.61511 4.66519 4.60925C4.66167 4.61511 4.65464 4.62722 4.65112 4.63347Z" fill="#089156"/>
    <path d="M4.60083 4.72151C4.60513 4.71409 4.61372 4.69885 4.61841 4.69104C4.61372 4.69885 4.60513 4.71409 4.60083 4.72151Z" fill="#089156"/>
    <path d="M4.58521 4.74809C4.58911 4.74184 4.59692 4.72856 4.60083 4.72192C4.59692 4.72856 4.58911 4.74184 4.58521 4.74809Z" fill="#089156"/>
    <path d="M4.53979 4.82283C4.54136 4.82009 4.54448 4.81462 4.54605 4.81189C4.54448 4.81462 4.54136 4.82009 4.53979 4.82283Z" fill="#089156"/>
    <path d="M4.5 4.91638C4.50156 4.90935 4.5043 4.89568 4.50586 4.88904C4.5043 4.89568 4.50156 4.90935 4.5 4.91638Z" fill="#089156"/>
    <path d="M4.44287 5.002C4.45693 4.98091 4.48545 4.93833 4.4999 4.91724C4.48545 4.93833 4.45693 4.98091 4.44287 5.002Z" fill="#089156"/>
    <path d="M4.42261 5.02852C4.42769 5.02109 4.43784 5.00586 4.44292 4.99805C4.43784 5.00586 4.42769 5.02109 4.42261 5.02852Z" fill="#089156"/>
    <path d="M4.38281 5.09675C4.38555 5.09206 4.39102 5.08269 4.39375 5.078C4.39102 5.08269 4.38555 5.09206 4.38281 5.09675Z" fill="#089156"/>
    <path d="M4.32837 5.1907C4.33228 5.18367 4.34009 5.16999 4.34399 5.16296C4.34009 5.16999 4.33228 5.18367 4.32837 5.1907Z" fill="#089156"/>
    <path d="M4.31396 5.21746C4.31748 5.2116 4.32451 5.1991 4.32842 5.19324C4.32451 5.1991 4.31748 5.2116 4.31396 5.21746Z" fill="#089156"/>
    <path d="M4.2688 5.29512C4.27036 5.29238 4.27349 5.28691 4.27544 5.28418C4.27349 5.28691 4.27036 5.29238 4.2688 5.29512Z" fill="#089156"/>
    <path d="M4.22534 5.36888C4.22666 5.36624 4.22974 5.3614 4.23106 5.35876C4.22974 5.3614 4.22666 5.36624 4.22534 5.36888Z" fill="#089156"/>
    <path d="M8.39453 10.1868C8.40117 10.1759 8.41524 10.154 8.42188 10.1434C8.41524 10.154 8.40117 10.1759 8.39453 10.1868Z" fill="#089156"/>
    <path d="M8.3772 10.2181C8.37915 10.215 8.38267 10.2083 8.38423 10.2052C8.38267 10.2083 8.37915 10.215 8.3772 10.2181Z" fill="#089156"/>
    <path d="M8.30469 10.3493C8.30781 10.3442 8.31367 10.3341 8.31641 10.329C8.31367 10.3341 8.30781 10.3442 8.30469 10.3493Z" fill="#089156"/>
    <path d="M8.26367 10.4218C8.2668 10.416 8.27344 10.4047 8.27695 10.3988C8.27344 10.4047 8.2668 10.416 8.26367 10.4218Z" fill="#089156"/>
    <path d="M8.22412 10.4931C8.22607 10.49 8.22959 10.4837 8.23115 10.4806C8.22959 10.4837 8.22607 10.49 8.22412 10.4931Z" fill="#089156"/>
    <path d="M8.16992 10.5859C8.17344 10.5796 8.18047 10.5671 8.18399 10.5613C8.18047 10.5671 8.17344 10.5796 8.16992 10.5859Z" fill="#089156"/>
    <path d="M8.1543 10.6142C8.1582 10.6075 8.16601 10.5947 8.16992 10.588C8.16601 10.5947 8.1582 10.6075 8.1543 10.6142Z" fill="#089156"/>
    <path d="M8.10229 10.7021C8.10542 10.697 8.11167 10.6861 8.1148 10.681C8.11167 10.6861 8.10542 10.697 8.10229 10.7021Z" fill="#089156"/>
    <path d="M8.06177 10.7728C8.06567 10.7657 8.07427 10.7513 8.07817 10.7443C8.07427 10.7513 8.06567 10.7657 8.06177 10.7728Z" fill="#089156"/>
    <path d="M7.98828 10.9005C7.99102 10.8954 7.99687 10.8857 7.99961 10.881C7.99687 10.8857 7.99102 10.8954 7.98828 10.9005Z" fill="#089156"/>
    <path d="M7.94678 10.9695C7.95108 10.962 7.95967 10.948 7.96358 10.9406C7.95967 10.948 7.95108 10.962 7.94678 10.9695Z" fill="#089156"/>
    <path d="M7.87451 11.094C7.87803 11.0882 7.88467 11.076 7.88818 11.0702C7.88467 11.076 7.87803 11.0882 7.87451 11.094Z" fill="#089156"/>
    <path d="M7.83423 11.1639C7.83696 11.1592 7.84243 11.1495 7.84517 11.1448C7.84243 11.1495 7.83696 11.1592 7.83423 11.1639Z" fill="#089156"/>
    <path d="M7.79175 11.2395C7.79487 11.2341 7.80112 11.2231 7.80425 11.2177C7.80112 11.2231 7.79487 11.2341 7.79175 11.2395Z" fill="#089156"/>
    <path d="M7.71631 11.3674C7.71982 11.3611 7.72686 11.349 7.73037 11.3431C7.72686 11.349 7.71982 11.3611 7.71631 11.3674Z" fill="#089156"/>
    <path d="M7.67847 11.4374C7.68081 11.4327 7.68589 11.4238 7.68862 11.4191C7.68589 11.4238 7.68081 11.4327 7.67847 11.4374Z" fill="#089156"/>
    <path d="M7.63501 11.5135C7.63774 11.5089 7.6436 11.4991 7.64634 11.494C7.6436 11.4991 7.63774 11.5089 7.63501 11.5135Z" fill="#089156"/>
    <path d="M7.55786 11.6465C7.56099 11.6415 7.56724 11.6313 7.56997 11.6262C7.56724 11.6313 7.56099 11.6415 7.55786 11.6465Z" fill="#089156"/>
    <path d="M7.51831 11.71C7.52222 11.703 7.53042 11.6893 7.53433 11.6823C7.53042 11.6893 7.52222 11.703 7.51831 11.71Z" fill="#089156"/>
    <path d="M7.44922 11.8318C7.45156 11.8275 7.45703 11.8181 7.45938 11.8138C7.45703 11.8181 7.45156 11.8275 7.44922 11.8318Z" fill="#089156"/>
    <path d="M7.40771 11.9063C7.41006 11.902 7.41475 11.8938 7.41709 11.8895C7.41475 11.8938 7.41006 11.902 7.40771 11.9063Z" fill="#089156"/>
    <path d="M7.36401 11.9789C7.36675 11.9746 7.37222 11.9652 7.37495 11.9609C7.37222 11.9652 7.36675 11.9746 7.36401 11.9789Z" fill="#089156"/>
    <path d="M7.28638 12.1129C7.29067 12.1059 7.29849 12.0918 7.30278 12.0852C7.29849 12.0918 7.29067 12.1059 7.28638 12.1129Z" fill="#089156"/>
    <path d="M7.25146 12.1746C7.2542 12.1695 7.26006 12.1585 7.26318 12.1531C7.26006 12.1585 7.2542 12.1695 7.25146 12.1746Z" fill="#089156"/>
    <path d="M7.198 12.2705C7.20112 12.2646 7.20815 12.2529 7.21128 12.2471C7.20815 12.2529 7.20112 12.2646 7.198 12.2705Z" fill="#089156"/>
    <path d="M7.18506 12.2909C7.18818 12.2855 7.19443 12.2741 7.19795 12.2687C7.19443 12.2741 7.18818 12.2855 7.18506 12.2909Z" fill="#089156"/>
    <path d="M13.5664 1.49048C13.5695 1.49556 13.5754 1.50649 13.5785 1.51196C13.5754 1.50649 13.5695 1.49556 13.5664 1.49048Z" fill="#10985B"/>
    <path d="M13.8835 2.04102C13.8855 2.04414 13.8886 2.05 13.8906 2.05273C13.8886 2.05 13.8855 2.04414 13.8835 2.04102Z" fill="#10985B"/>
    <path d="M14.47 3.05859C14.4715 3.06133 14.475 3.0668 14.4766 3.06992C14.475 3.0668 14.4715 3.06133 14.47 3.05859Z" fill="#10985B"/>
    <path d="M14.5828 3.24976C14.5859 3.25483 14.5917 3.26538 14.5949 3.27085C14.5917 3.26538 14.5859 3.25483 14.5828 3.24976Z" fill="#10985B"/>
    <path d="M14.7427 3.52844C14.7446 3.53118 14.7478 3.53665 14.7493 3.53977C14.7478 3.53665 14.7446 3.53118 14.7427 3.52844Z" fill="#10985B"/>
    <path d="M14.897 3.79468C14.9001 3.79976 14.906 3.80991 14.9091 3.81499C14.906 3.80991 14.9001 3.79976 14.897 3.79468Z" fill="#10985B"/>
    <path d="M15.0542 4.0686C15.0573 4.07368 15.0632 4.08423 15.0663 4.08931C15.0632 4.08423 15.0573 4.07368 15.0542 4.0686Z" fill="#10985B"/>
    <path d="M16.4628 6.5094C17.1421 7.68635 17.8257 8.86135 18.4995 10.0418C18.5026 10.0469 18.5089 10.0578 18.512 10.0629C18.5276 10.0887 18.5589 10.1399 18.5741 10.1653C18.5772 10.1703 18.5835 10.1809 18.5866 10.186L18.6179 10.2395C18.6198 10.243 18.6237 10.2504 18.6261 10.2539L18.6651 10.3219C18.669 10.3285 18.6765 10.3422 18.6804 10.3489C18.6839 10.3547 18.6909 10.3668 18.6944 10.3731L18.7327 10.4395C18.7343 10.4422 18.7374 10.4477 18.739 10.4504L18.7772 10.516C18.7788 10.5188 18.7819 10.5239 18.7835 10.5266L18.8218 10.593C18.8257 10.5996 18.8331 10.6125 18.837 10.6192C18.8405 10.6258 18.8479 10.6387 18.8515 10.6449L18.8909 10.7145C18.8964 10.7281 18.9073 10.7547 18.9128 10.768L18.9237 10.7895L18.9288 10.8008L18.9374 10.8121L18.9604 10.8469C18.9687 10.8598 18.9847 10.8856 18.9929 10.8985C18.9976 10.9063 19.0077 10.9219 19.0124 10.9297L19.0382 10.9707C19.046 10.9883 19.0616 11.0239 19.0694 11.0414L19.0812 11.0625L19.0854 11.0707L19.089 11.0758C19.1062 11.1012 19.1401 11.1524 19.1573 11.1778C19.1616 11.1848 19.1702 11.1989 19.1749 11.2059L19.1983 11.2449C19.2019 11.2512 19.2089 11.2633 19.2124 11.2692L19.2519 11.3383C19.2554 11.3446 19.2624 11.3571 19.2659 11.3633C19.2694 11.3696 19.2765 11.3817 19.28 11.3879L19.319 11.4547C19.3206 11.4578 19.3241 11.4637 19.3261 11.4664L19.3616 11.5289C19.364 11.5328 19.3687 11.541 19.371 11.5449L19.4069 11.6078C19.4112 11.6149 19.4194 11.6293 19.4237 11.6364C19.4272 11.6426 19.4347 11.6551 19.4382 11.6614C19.4671 11.7094 19.4948 11.7582 19.5206 11.8082C19.5245 11.8164 19.5323 11.8328 19.5358 11.841L19.5538 11.8817C19.5585 11.8895 19.5679 11.9055 19.5722 11.9133C19.578 11.9211 19.5894 11.936 19.5952 11.9434L19.6222 11.9817C19.6269 11.9891 19.6362 12.0039 19.6413 12.0117L19.6808 12.0801C19.6843 12.0864 19.6913 12.0989 19.6948 12.1051C19.6983 12.1114 19.7054 12.1235 19.7093 12.1297L19.7483 12.1969C19.7499 12.2 19.753 12.2055 19.7546 12.2082L19.7917 12.2731C19.7933 12.2758 19.7964 12.2809 19.7979 12.2836L19.8358 12.3496C19.8397 12.3563 19.8476 12.3696 19.8515 12.3766C19.8554 12.3832 19.8632 12.3965 19.8667 12.4031L19.9058 12.4703C19.9073 12.4731 19.9101 12.4785 19.9116 12.4813L19.953 12.5586L19.9526 12.5938C18.9753 12.3129 18.0136 11.9797 17.0335 11.709C16.144 11.4219 15.2464 11.1606 14.3569 10.875C14.4808 10.8156 14.6132 10.7778 14.737 10.7192C14.753 10.6664 14.7698 10.6141 14.7862 10.5621C14.9405 10.4653 15.1147 10.4071 15.2667 10.3067C15.2726 10.1781 15.2722 10.05 15.2718 9.9219C15.4421 9.78479 15.6226 9.65784 15.7628 9.48791C15.7769 9.32073 15.6507 9.12502 15.7808 8.98401C16.1808 8.47932 16.4233 7.85393 16.4667 7.21135C16.5382 6.9762 16.4097 6.74338 16.4628 6.5094Z" fill="#F9C941"/>
    <path d="M19.9526 12.5953L19.973 12.5961L19.9843 12.6258L19.9612 12.6274L19.9526 12.5953Z" fill="#F9C941"/>
    <path d="M10.0867 7.51282C10.0898 7.5179 10.096 7.52844 10.0992 7.53391C10.096 7.52844 10.0898 7.5179 10.0867 7.51282Z" fill="#E3B73A"/>
    <path d="M10.1589 7.63623C10.1617 7.64092 10.1667 7.6499 10.1695 7.65459C10.1667 7.6499 10.1617 7.64092 10.1589 7.63623Z" fill="#E3B73A"/>
    <path d="M10.2014 7.71484C10.2034 7.71797 10.2069 7.72461 10.2088 7.72773C10.2069 7.72461 10.2034 7.71797 10.2014 7.71484Z" fill="#E3B73A"/>
    <path d="M10.2483 7.79407C10.2518 7.79993 10.2584 7.81165 10.262 7.8175C10.2584 7.81165 10.2518 7.79993 10.2483 7.79407Z" fill="#E3B73A"/>
    <path d="M10.262 7.82019C10.2655 7.82683 10.2729 7.83933 10.2768 7.84558C10.2729 7.83933 10.2655 7.82683 10.262 7.82019Z" fill="#E3B73A"/>
    <path d="M10.314 7.90955C10.3159 7.91306 10.3202 7.92009 10.3222 7.9236C10.3202 7.92009 10.3159 7.91306 10.314 7.90955Z" fill="#E3B73A"/>
    <path d="M10.3992 8.05554C10.4027 8.06179 10.4093 8.0739 10.4128 8.07976C10.4093 8.0739 10.4027 8.06179 10.3992 8.05554Z" fill="#E3B73A"/>
    <path d="M10.4729 8.18201C10.4764 8.18787 10.4831 8.1988 10.4862 8.20427C10.4831 8.1988 10.4764 8.18787 10.4729 8.18201Z" fill="#E3B73A"/>
    <path d="M10.5198 8.26416C10.5276 8.27705 10.5428 8.30244 10.5506 8.31533C10.5428 8.30244 10.5276 8.27705 10.5198 8.26416Z" fill="#E3B73A"/>
    <path d="M10.5613 8.33167C10.5628 8.33518 10.5667 8.34182 10.5687 8.34495C10.5667 8.34182 10.5628 8.33518 10.5613 8.33167Z" fill="#E3B73A"/>
    <path d="M10.6375 8.46838C10.6449 8.47854 10.6597 8.49964 10.6671 8.51018C10.6597 8.49964 10.6449 8.47854 10.6375 8.46838Z" fill="#E3B73A"/>
    <path d="M10.6772 8.52844C10.6788 8.53157 10.6823 8.53821 10.6843 8.54133C10.6823 8.53821 10.6788 8.53157 10.6772 8.52844Z" fill="#E3B73A"/>
    <path d="M10.7942 8.74023C10.8016 8.75117 10.8161 8.77305 10.8235 8.78398C10.8161 8.77305 10.8016 8.75117 10.7942 8.74023Z" fill="#E3B73A"/>
    <path d="M10.834 8.79993C10.8355 8.80305 10.8395 8.80969 10.841 8.81282C10.8395 8.80969 10.8355 8.80305 10.834 8.79993Z" fill="#E3B73A"/>
    <path d="M10.9026 8.92566C10.9061 8.93152 10.9127 8.94324 10.9163 8.9491C10.9127 8.94324 10.9061 8.93152 10.9026 8.92566Z" fill="#E3B73A"/>
    <path d="M10.9414 8.99548C10.9453 9.00212 10.9531 9.01619 10.957 9.02283C10.9531 9.01619 10.9453 9.00212 10.9414 8.99548Z" fill="#E3B73A"/>
    <path d="M10.9895 9.07703C10.9934 9.08406 11.0016 9.09851 11.0055 9.10554C11.0016 9.09851 10.9934 9.08406 10.9895 9.07703Z" fill="#E3B73A"/>
    <path d="M11.0054 9.10779C11.0089 9.11365 11.0159 9.12615 11.0194 9.1324C11.0159 9.12615 11.0089 9.11365 11.0054 9.10779Z" fill="#E3B73A"/>
    <path d="M11.0593 9.1991C11.0609 9.20222 11.0644 9.20769 11.066 9.21042C11.0644 9.20769 11.0609 9.20222 11.0593 9.1991Z" fill="#E3B73A"/>
    <path d="M11.1038 9.27734C11.1069 9.28281 11.1131 9.29336 11.1163 9.29883C11.1131 9.29336 11.1069 9.28281 11.1038 9.27734Z" fill="#E3B73A"/>
    <path d="M11.1401 9.33704C11.1444 9.34407 11.1526 9.35852 11.1569 9.36555C11.1526 9.35852 11.1444 9.34407 11.1401 9.33704Z" fill="#E3B73A"/>
    <path d="M11.2246 9.48132C11.2313 9.49265 11.2449 9.51492 11.2516 9.52624C11.2449 9.51492 11.2313 9.49265 11.2246 9.48132Z" fill="#E3B73A"/>
    <path d="M11.2629 9.54407C11.2649 9.54758 11.2688 9.55383 11.2708 9.55696C11.2688 9.55383 11.2649 9.54758 11.2629 9.54407Z" fill="#E3B73A"/>
    <path d="M11.3401 9.66687L11.3432 9.67126L11.3458 9.67698C11.3445 9.67434 11.3414 9.66951 11.3401 9.66687Z" fill="#E3B73A"/>
    <path d="M11.4211 9.82532C11.4247 9.83118 11.4309 9.84251 11.4344 9.84836C11.4309 9.84251 11.4247 9.83118 11.4211 9.82532Z" fill="#E3B73A"/>
    <path d="M11.4343 9.84851C11.4382 9.85515 11.446 9.86843 11.45 9.87507C11.446 9.86843 11.4382 9.85515 11.4343 9.84851Z" fill="#E3B73A"/>
    <path d="M11.4871 9.9408C11.489 9.94431 11.4929 9.95134 11.4953 9.95486C11.4929 9.95134 11.489 9.94431 11.4871 9.9408Z" fill="#E3B73A"/>
    <path d="M11.521 9.99841C11.9714 10.164 12.4374 10.282 12.8925 10.4324C13.3815 10.5773 13.8667 10.734 14.3569 10.8746C15.2464 11.1601 16.144 11.4215 17.0335 11.7086C17.0202 11.8988 17.0577 12.0937 17.0104 12.2804C16.9741 12.4621 16.7569 12.4906 16.6675 12.6355C15.4655 12.6359 14.264 12.6394 13.0624 12.6343L13.0366 12.6324C12.5401 11.7496 12.0237 10.8777 11.521 9.99841Z" fill="#E3B73A"/>
    <path d="M18.4995 10.0396C18.5026 10.0446 18.5089 10.0556 18.512 10.0606C18.5089 10.0556 18.5026 10.0446 18.4995 10.0396Z" fill="#E8B835"/>
    <path d="M18.5742 10.1619C18.5773 10.1669 18.5836 10.1775 18.5867 10.1826C18.5836 10.1775 18.5773 10.1669 18.5742 10.1619Z" fill="#E8B835"/>
    <path d="M18.6179 10.2379C18.6199 10.2414 18.6238 10.2488 18.6261 10.2524C18.6238 10.2488 18.6199 10.2414 18.6179 10.2379Z" fill="#E8B835"/>
    <path d="M18.665 10.321C18.6689 10.3277 18.6764 10.3414 18.6803 10.348C18.6764 10.3414 18.6689 10.3277 18.665 10.321Z" fill="#E8B835"/>
    <path d="M18.6804 10.3464C18.6839 10.3523 18.691 10.3644 18.6945 10.3707C18.691 10.3644 18.6839 10.3523 18.6804 10.3464Z" fill="#E8B835"/>
    <path d="M18.7327 10.4393C18.7342 10.4421 18.7374 10.4475 18.7389 10.4503C18.7374 10.4475 18.7342 10.4421 18.7327 10.4393Z" fill="#E8B835"/>
    <path d="M18.7773 10.5139C18.7789 10.5167 18.782 10.5217 18.7836 10.5245C18.782 10.5217 18.7789 10.5167 18.7773 10.5139Z" fill="#E8B835"/>
    <path d="M18.8218 10.5906C18.8257 10.5972 18.8331 10.6101 18.837 10.6167C18.8331 10.6101 18.8257 10.5972 18.8218 10.5906Z" fill="#E8B835"/>
    <path d="M18.8369 10.6172C18.8404 10.6238 18.8478 10.6367 18.8514 10.643C18.8478 10.6367 18.8404 10.6238 18.8369 10.6172Z" fill="#E8B835"/>
    <path d="M18.8909 10.7119C18.8963 10.7256 18.9073 10.7522 18.9127 10.7654C18.9073 10.7522 18.8963 10.7256 18.8909 10.7119Z" fill="#E8B835"/>
    <path d="M18.9238 10.7874C18.9273 10.7932 18.934 10.8045 18.9375 10.81L18.9289 10.7987L18.9238 10.7874Z" fill="#E8B835"/>
    <path d="M18.9604 10.8445C18.9687 10.8574 18.9847 10.8832 18.9929 10.896C18.9847 10.8832 18.9687 10.8574 18.9604 10.8445Z" fill="#E8B835"/>
    <path d="M18.9929 10.8983C18.9976 10.9061 19.0078 10.9218 19.0125 10.9296C19.0078 10.9218 18.9976 10.9061 18.9929 10.8983Z" fill="#E8B835"/>
    <path d="M19.0381 10.9688C19.0459 10.9863 19.0615 11.0219 19.0693 11.0395C19.0615 11.0219 19.0459 10.9863 19.0381 10.9688Z" fill="#E8B835"/>
    <path d="M19.0811 11.0588C19.083 11.0624 19.0869 11.069 19.0889 11.0721L19.0854 11.067L19.0811 11.0588Z" fill="#E8B835"/>
    <path d="M19.1572 11.1741C19.1615 11.1811 19.1701 11.1952 19.1748 11.2022C19.1701 11.1952 19.1615 11.1811 19.1572 11.1741Z" fill="#E8B835"/>
    <path d="M19.1982 11.2417C19.2018 11.2479 19.2088 11.2601 19.2123 11.2659C19.2088 11.2601 19.2018 11.2479 19.1982 11.2417Z" fill="#E8B835"/>
    <path d="M19.252 11.3353C19.2555 11.3416 19.2625 11.3541 19.266 11.3603C19.2625 11.3541 19.2555 11.3416 19.252 11.3353Z" fill="#E8B835"/>
    <path d="M19.2659 11.3596C19.2694 11.3659 19.2764 11.378 19.2799 11.3842C19.2764 11.378 19.2694 11.3659 19.2659 11.3596Z" fill="#E8B835"/>
    <path d="M19.3191 11.4539C19.3207 11.457 19.3242 11.4628 19.3261 11.4656C19.3242 11.4628 19.3207 11.457 19.3191 11.4539Z" fill="#E8B835"/>
    <path d="M19.3616 11.5245C19.3639 11.5284 19.3686 11.5366 19.3709 11.5406C19.3686 11.5366 19.3639 11.5284 19.3616 11.5245Z" fill="#E8B835"/>
    <path d="M19.407 11.6067C19.4113 11.6137 19.4195 11.6282 19.4238 11.6352C19.4195 11.6282 19.4113 11.6137 19.407 11.6067Z" fill="#E8B835"/>
    <path d="M19.4238 11.632C19.4273 11.6382 19.4348 11.6507 19.4383 11.657C19.4348 11.6507 19.4273 11.6382 19.4238 11.632Z" fill="#E8B835"/>
    <path d="M17.0335 11.7089C18.0136 11.9796 18.9753 12.3128 19.9526 12.5936L19.9612 12.6257C18.864 12.6507 17.7651 12.63 16.6675 12.6358C16.7569 12.4909 16.9741 12.4624 17.0104 12.2807C17.0577 12.094 17.0202 11.8991 17.0335 11.7089Z" fill="#E8B835"/>
    <path d="M19.5205 11.8057C19.5244 11.8139 19.5322 11.8303 19.5357 11.8385C19.5322 11.8303 19.5244 11.8139 19.5205 11.8057Z" fill="#E8B835"/>
    <path d="M19.5537 11.8785C19.5584 11.8864 19.5678 11.9024 19.5721 11.9102C19.5678 11.9024 19.5584 11.8864 19.5537 11.8785Z" fill="#E8B835"/>
    <path d="M19.5723 11.9099C19.5781 11.9177 19.5895 11.9326 19.5953 11.94C19.5895 11.9326 19.5781 11.9177 19.5723 11.9099Z" fill="#E8B835"/>
    <path d="M19.6221 11.9783C19.6268 11.9857 19.6361 12.0005 19.6412 12.0083C19.6361 12.0005 19.6268 11.9857 19.6221 11.9783Z" fill="#E8B835"/>
    <path d="M19.6807 12.08C19.6842 12.0862 19.6912 12.0987 19.6947 12.105C19.6912 12.0987 19.6842 12.0862 19.6807 12.08Z" fill="#E8B835"/>
    <path d="M19.6948 12.1007C19.6983 12.107 19.7054 12.1191 19.7093 12.1253C19.7054 12.1191 19.6983 12.107 19.6948 12.1007Z" fill="#E8B835"/>
    <path d="M19.7483 12.196C19.7499 12.1992 19.753 12.2046 19.7545 12.2074C19.753 12.2046 19.7499 12.1992 19.7483 12.196Z" fill="#E8B835"/>
    <path d="M19.7917 12.2722C19.7933 12.275 19.7964 12.28 19.798 12.2828C19.7964 12.28 19.7933 12.275 19.7917 12.2722Z" fill="#E8B835"/>
    <path d="M19.8359 12.3459C19.8398 12.3526 19.8477 12.3659 19.8516 12.3729C19.8477 12.3659 19.8398 12.3526 19.8359 12.3459Z" fill="#E8B835"/>
    <path d="M19.8516 12.373C19.8555 12.3797 19.8633 12.393 19.8668 12.3996C19.8633 12.393 19.8555 12.3797 19.8516 12.373Z" fill="#E8B835"/>
    <path d="M19.9058 12.4695C19.9073 12.4722 19.9101 12.4777 19.9116 12.4804C19.9101 12.4777 19.9073 12.4722 19.9058 12.4695Z" fill="#E8B835"/>
    <path d="M19.953 12.5585C19.9581 12.5675 19.9679 12.5854 19.9729 12.5944L19.9526 12.5936L19.953 12.5585Z" fill="#E8B835"/>
    <path d="M5.78462 14.6912C6.18735 14.0045 6.57016 13.3049 6.98618 12.6263C9.00297 12.6338 11.0202 12.615 13.0366 12.6338L13.0623 12.6357C12.0424 12.6685 11.0198 12.6271 9.99985 12.6529C9.80532 12.7783 9.67563 12.9814 9.4893 13.1181C9.31625 13.2443 9.18891 13.4201 9.02368 13.5549C8.79204 13.7256 8.61977 13.9623 8.38461 14.1295C8.11274 14.4174 7.79907 14.6599 7.52485 14.9463C7.31938 15.1041 7.14751 15.299 6.9561 15.4728C6.74555 15.6256 6.58423 15.8326 6.38735 16.0013C6.38227 16.0056 6.37251 16.0142 6.36743 16.0189C6.35688 16.0271 6.33618 16.0443 6.32563 16.0525C6.32055 16.0568 6.31118 16.0646 6.3061 16.0689C6.15102 16.1888 6.03227 16.347 5.87993 16.4701C5.87485 16.4744 5.86509 16.4826 5.8604 16.4865C5.85532 16.4908 5.84555 16.499 5.84048 16.5029C5.61821 16.6853 5.44009 16.9162 5.20688 17.0861C4.97212 17.3189 4.70727 17.5189 4.48423 17.7642C4.15454 18.0353 3.86938 18.3552 3.52954 18.615C3.61392 18.431 3.72563 18.2623 3.82368 18.0861C4.47759 16.9545 5.13071 15.8228 5.78462 14.6912Z" fill="#296AD9"/>
    <path d="M3.51245 18.6378C3.51675 18.6315 3.52534 18.619 3.52964 18.6128L3.52847 18.6382L3.51245 18.6378Z" fill="#296AD9"/>
    <path d="M13.0625 12.6368C14.2641 12.6418 15.4657 12.6383 16.6676 12.6379C17.7653 12.6321 18.8641 12.6528 19.9614 12.6278L19.9844 12.6262L20 12.6305V12.6336C18.8414 14.6364 17.6864 16.6415 16.5278 18.6446C12.1946 18.6434 7.86138 18.6485 3.52856 18.6415L3.52974 18.6161C3.86958 18.3563 4.15474 18.0364 4.48442 17.7653C4.70747 17.52 4.97231 17.32 5.20708 17.0872C5.44028 16.9172 5.61841 16.6864 5.84067 16.504C5.84575 16.5 5.85552 16.4918 5.86059 16.4875C5.86528 16.4836 5.87505 16.4754 5.88013 16.4711C6.03247 16.3481 6.15122 16.1899 6.3063 16.07C6.31138 16.0657 6.32075 16.0579 6.32583 16.0536C6.33638 16.0454 6.35708 16.0282 6.36763 16.02C6.3727 16.0153 6.38247 16.0067 6.38755 16.0024C6.58442 15.8336 6.74575 15.6266 6.9563 15.4739C7.1477 15.3 7.31958 15.1051 7.52505 14.9473C7.79927 14.661 8.11294 14.4184 8.38481 14.1305C8.61997 13.9633 8.79223 13.7266 9.02388 13.5559C9.18911 13.4211 9.31645 13.2454 9.4895 13.1192C9.67583 12.9825 9.80552 12.7793 10 12.654C11.02 12.6282 12.0426 12.6696 13.0625 12.6368Z" fill="#2A71E9"/>
    <path d="M6.36743 16.0177C6.37251 16.013 6.38228 16.0044 6.38735 16.0001C6.38228 16.0044 6.37251 16.013 6.36743 16.0177Z" fill="#286EE6"/>
    <path d="M6.32568 16.0523C6.33623 16.0441 6.35693 16.0269 6.36748 16.0187C6.35693 16.0269 6.33623 16.0441 6.32568 16.0523Z" fill="#286EE6"/>
    <path d="M6.30615 16.0685C6.31123 16.0642 6.32061 16.0564 6.32568 16.0521C6.32061 16.0564 6.31123 16.0642 6.30615 16.0685Z" fill="#286EE6"/>
    <path d="M5.8606 16.4853C5.86528 16.4814 5.87505 16.4732 5.88013 16.4689C5.87505 16.4732 5.86528 16.4814 5.8606 16.4853Z" fill="#286EE6"/>
    <path d="M5.84058 16.5031C5.84565 16.4992 5.85542 16.491 5.8605 16.4867C5.85542 16.491 5.84565 16.4992 5.84058 16.5031Z" fill="#286EE6"/>
    </g>
    <defs>
        <clipPath id="clip0">
            <rect width="20" height="20" fill="white" transform="translate(0 -0.00012207)"/>
        </clipPath>
    </defs>
</svg>
