<svg width="49" height="66" viewBox="0 0 49 66" fill="none" xmlns="http://www.w3.org/2000/svg">
<mask id="mask0" mask-type="alpha" maskUnits="userSpaceOnUse" x="0" y="0" width="49" height="66">
<path d="M30.4166 0H5.27081C2.83019 0 0.833313 1.99688 0.833313 4.4375V60.6458C0.833313 63.0865 2.83019 65.0833 5.27081 65.0833H43.7291C46.1698 65.0833 48.1666 63.0865 48.1666 60.6458V17.75L30.4166 0Z" fill="white"/>
</mask>
<g mask="url(#mask0)">
<path d="M30.4166 0H5.27081C2.83019 0 0.833313 1.99688 0.833313 4.4375V60.6458C0.833313 63.0865 2.83019 65.0833 5.27081 65.0833H43.7291C46.1698 65.0833 48.1666 63.0865 48.1666 60.6458V17.75L37.8125 10.3542L30.4166 0Z" fill="#F4B400"/>
</g>
<mask id="mask1" mask-type="alpha" maskUnits="userSpaceOnUse" x="0" y="0" width="49" height="66">
<path d="M30.4166 0H5.27081C2.83019 0 0.833313 1.99688 0.833313 4.4375V60.6458C0.833313 63.0865 2.83019 65.0833 5.27081 65.0833H43.7291C46.1698 65.0833 48.1666 63.0865 48.1666 60.6458V17.75L30.4166 0Z" fill="white"/>
</mask>
<g mask="url(#mask1)">
<path d="M34.1145 29.5833H14.8854C13.6651 29.5833 12.6666 30.5818 12.6666 31.8021V51.0312C12.6666 52.2516 13.6651 53.25 14.8854 53.25H34.1145C35.3349 53.25 36.3333 52.2516 36.3333 51.0312V31.8021C36.3333 30.5818 35.3349 29.5833 34.1145 29.5833ZM33.375 46.5937H15.625V36.2396H33.375V46.5937Z" fill="#F1F1F1"/>
</g>
<mask id="mask2" mask-type="alpha" maskUnits="userSpaceOnUse" x="0" y="0" width="49" height="66">
<path d="M30.4166 0H5.27081C2.83019 0 0.833313 1.99688 0.833313 4.4375V60.6458C0.833313 63.0865 2.83019 65.0833 5.27081 65.0833H43.7291C46.1698 65.0833 48.1666 63.0865 48.1666 60.6458V17.75L30.4166 0Z" fill="white"/>
</mask>
<g mask="url(#mask2)">
<path d="M31.7146 16.452L48.1666 32.9004V17.75L31.7146 16.452Z" fill="url(#paint0_linear)"/>
</g>
<mask id="mask3" mask-type="alpha" maskUnits="userSpaceOnUse" x="0" y="0" width="49" height="66">
<path d="M30.4166 0H5.27081C2.83019 0 0.833313 1.99688 0.833313 4.4375V60.6458C0.833313 63.0865 2.83019 65.0833 5.27081 65.0833H43.7291C46.1698 65.0833 48.1666 63.0865 48.1666 60.6458V17.75L30.4166 0Z" fill="white"/>
</mask>
<g mask="url(#mask3)">
<path d="M30.4166 0V13.3125C30.4166 15.7642 32.4024 17.75 34.8541 17.75H48.1666L30.4166 0Z" fill="#FADA80"/>
</g>
<mask id="mask4" mask-type="alpha" maskUnits="userSpaceOnUse" x="0" y="0" width="49" height="66">
<path d="M30.4166 0H5.27081C2.83019 0 0.833313 1.99688 0.833313 4.4375V60.6458C0.833313 63.0865 2.83019 65.0833 5.27081 65.0833H43.7291C46.1698 65.0833 48.1666 63.0865 48.1666 60.6458V17.75L30.4166 0Z" fill="white"/>
</mask>
<g mask="url(#mask4)">
<path d="M30.4166 0V0.369792L47.7968 17.75H48.1666L30.4166 0Z" fill="white" fill-opacity="0.1"/>
</g>
<mask id="mask5" mask-type="alpha" maskUnits="userSpaceOnUse" x="0" y="0" width="49" height="66">
<path d="M30.4166 0H5.27081C2.83019 0 0.833313 1.99688 0.833313 4.4375V60.6458C0.833313 63.0865 2.83019 65.0833 5.27081 65.0833H43.7291C46.1698 65.0833 48.1666 63.0865 48.1666 60.6458V17.75L30.4166 0Z" fill="white"/>
</mask>
<g mask="url(#mask5)">
<path d="M5.27081 0C2.83019 0 0.833313 1.99688 0.833313 4.4375V4.80729C0.833313 2.36667 2.83019 0.369792 5.27081 0.369792H30.4166V0H5.27081Z" fill="white" fill-opacity="0.2"/>
</g>
<mask id="mask6" mask-type="alpha" maskUnits="userSpaceOnUse" x="0" y="0" width="49" height="66">
<path d="M30.4166 0H5.27081C2.83019 0 0.833313 1.99688 0.833313 4.4375V60.6458C0.833313 63.0865 2.83019 65.0833 5.27081 65.0833H43.7291C46.1698 65.0833 48.1666 63.0865 48.1666 60.6458V17.75L30.4166 0Z" fill="white"/>
</mask>
<g mask="url(#mask6)">
<path d="M43.7291 64.7135H5.27081C2.83019 64.7135 0.833313 62.7167 0.833313 60.276V60.6458C0.833313 63.0865 2.83019 65.0833 5.27081 65.0833H43.7291C46.1698 65.0833 48.1666 63.0865 48.1666 60.6458V60.276C48.1666 62.7167 46.1698 64.7135 43.7291 64.7135Z" fill="#BF360C" fill-opacity="0.2"/>
</g>
<mask id="mask7" mask-type="alpha" maskUnits="userSpaceOnUse" x="0" y="0" width="49" height="66">
<path d="M30.4166 0H5.27081C2.83019 0 0.833313 1.99688 0.833313 4.4375V60.6458C0.833313 63.0865 2.83019 65.0833 5.27081 65.0833H43.7291C46.1698 65.0833 48.1666 63.0865 48.1666 60.6458V17.75L30.4166 0Z" fill="white"/>
</mask>
<g mask="url(#mask7)">
<path d="M34.8541 17.75C32.4024 17.75 30.4166 15.7642 30.4166 13.3125V13.6823C30.4166 16.134 32.4024 18.1198 34.8541 18.1198H48.1666V17.75H34.8541Z" fill="#BF360C" fill-opacity="0.1"/>
</g>
<defs>
<linearGradient id="paint0_linear" x1="39.9415" y1="17.8643" x2="39.9415" y2="32.9027" gradientUnits="userSpaceOnUse">
<stop stop-color="#BF360C" stop-opacity="0.2"/>
<stop offset="1" stop-color="#BF360C" stop-opacity="0.02"/>
</linearGradient>
</defs>
</svg>
