<svg width="17" height="18" viewBox="0 0 17 18" fill="none" xmlns="http://www.w3.org/2000/svg">
    <path d="M13.0796 10.6503C12.5246 12.4353 11.1413 13.6712 9.30045 13.9437C6.49129 14.3595 3.73295 12.2295 3.51462 9.39616C3.28795 6.45616 5.60712 4.00033 8.50129 4.00033C9.17045 4.00033 9.80879 4.13199 10.3921 4.37033C10.5946 4.45283 10.8238 4.38199 10.9271 4.19033L12.123 1.98449C12.2363 1.77366 12.1546 1.50199 11.9363 1.40366C10.8888 0.930325 9.72712 0.666992 8.50379 0.666992C3.81879 0.666992 0.0362878 4.53033 0.170454 9.24449C0.292954 13.5453 3.84295 17.1437 8.14045 17.3262C12.7621 17.5212 16.5955 13.9545 16.828 9.43532C16.8371 9.27032 16.8338 8.30949 16.8305 7.74616C16.8296 7.51616 16.643 7.33366 16.4138 7.33366H8.91462C8.68462 7.33366 8.49795 7.51949 8.49795 7.75032V10.2337C8.49795 10.4628 8.68462 10.6503 8.91462 10.6503H13.0796Z" fill="white"/>
</svg>