<svg width="49" height="66" viewBox="0 0 49 66" fill="none" xmlns="http://www.w3.org/2000/svg">
<mask id="mask0" mask-type="alpha" maskUnits="userSpaceOnUse" x="0" y="0" width="49" height="66">
<path d="M30.4166 0H5.27081C2.83019 0 0.833313 1.99688 0.833313 4.4375V60.6458C0.833313 63.0865 2.83019 65.0833 5.27081 65.0833H43.7291C46.1698 65.0833 48.1666 63.0865 48.1666 60.6458V17.75L30.4166 0Z" fill="white"/>
</mask>
<g mask="url(#mask0)">
<path d="M30.4166 0H5.27081C2.83019 0 0.833313 1.99688 0.833313 4.4375V60.6458C0.833313 63.0865 2.83019 65.0833 5.27081 65.0833H43.7291C46.1698 65.0833 48.1666 63.0865 48.1666 60.6458V17.75L37.8125 10.3542L30.4166 0Z" fill="#0F9D58"/>
</g>
<mask id="mask1" mask-type="alpha" maskUnits="userSpaceOnUse" x="0" y="0" width="49" height="66">
<path d="M30.4166 0H5.27081C2.83019 0 0.833313 1.99688 0.833313 4.4375V60.6458C0.833313 63.0865 2.83019 65.0833 5.27081 65.0833H43.7291C46.1698 65.0833 48.1666 63.0865 48.1666 60.6458V17.75L30.4166 0Z" fill="white"/>
</mask>
<g mask="url(#mask1)">
<path d="M12.6666 31.8021V53.25H36.3333V31.8021H12.6666ZM23.0208 50.2917H15.625V46.5937H23.0208V50.2917ZM23.0208 44.375H15.625V40.6771H23.0208V44.375ZM23.0208 38.4583H15.625V34.7604H23.0208V38.4583ZM33.375 50.2917H25.9791V46.5937H33.375V50.2917ZM33.375 44.375H25.9791V40.6771H33.375V44.375ZM33.375 38.4583H25.9791V34.7604H33.375V38.4583Z" fill="#F1F1F1"/>
</g>
<mask id="mask2" mask-type="alpha" maskUnits="userSpaceOnUse" x="0" y="0" width="49" height="66">
<path d="M30.4166 0H5.27081C2.83019 0 0.833313 1.99688 0.833313 4.4375V60.6458C0.833313 63.0865 2.83019 65.0833 5.27081 65.0833H43.7291C46.1698 65.0833 48.1666 63.0865 48.1666 60.6458V17.75L30.4166 0Z" fill="white"/>
</mask>
<g mask="url(#mask2)">
<path d="M31.7146 16.452L48.1666 32.9004V17.75L31.7146 16.452Z" fill="url(#paint0_linear)"/>
</g>
<mask id="mask3" mask-type="alpha" maskUnits="userSpaceOnUse" x="0" y="0" width="49" height="66">
<path d="M30.4166 0H5.27081C2.83019 0 0.833313 1.99688 0.833313 4.4375V60.6458C0.833313 63.0865 2.83019 65.0833 5.27081 65.0833H43.7291C46.1698 65.0833 48.1666 63.0865 48.1666 60.6458V17.75L30.4166 0Z" fill="white"/>
</mask>
<g mask="url(#mask3)">
<path d="M30.4166 0V13.3125C30.4166 15.7642 32.4024 17.75 34.8541 17.75H48.1666L30.4166 0Z" fill="#87CEAC"/>
</g>
<mask id="mask4" mask-type="alpha" maskUnits="userSpaceOnUse" x="0" y="0" width="49" height="66">
<path d="M30.4166 0H5.27081C2.83019 0 0.833313 1.99688 0.833313 4.4375V60.6458C0.833313 63.0865 2.83019 65.0833 5.27081 65.0833H43.7291C46.1698 65.0833 48.1666 63.0865 48.1666 60.6458V17.75L30.4166 0Z" fill="white"/>
</mask>
<g mask="url(#mask4)">
<path d="M5.27081 0C2.83019 0 0.833313 1.99688 0.833313 4.4375V4.80729C0.833313 2.36667 2.83019 0.369792 5.27081 0.369792H30.4166V0H5.27081Z" fill="white" fill-opacity="0.2"/>
</g>
<mask id="mask5" mask-type="alpha" maskUnits="userSpaceOnUse" x="0" y="0" width="49" height="66">
<path d="M30.4166 0H5.27081C2.83019 0 0.833313 1.99688 0.833313 4.4375V60.6458C0.833313 63.0865 2.83019 65.0833 5.27081 65.0833H43.7291C46.1698 65.0833 48.1666 63.0865 48.1666 60.6458V17.75L30.4166 0Z" fill="white"/>
</mask>
<g mask="url(#mask5)">
<path d="M43.7291 64.7135H5.27081C2.83019 64.7135 0.833313 62.7167 0.833313 60.276V60.6458C0.833313 63.0865 2.83019 65.0833 5.27081 65.0833H43.7291C46.1698 65.0833 48.1666 63.0865 48.1666 60.6458V60.276C48.1666 62.7167 46.1698 64.7135 43.7291 64.7135Z" fill="#263238" fill-opacity="0.2"/>
</g>
<mask id="mask6" mask-type="alpha" maskUnits="userSpaceOnUse" x="0" y="0" width="49" height="66">
<path d="M30.4166 0H5.27081C2.83019 0 0.833313 1.99688 0.833313 4.4375V60.6458C0.833313 63.0865 2.83019 65.0833 5.27081 65.0833H43.7291C46.1698 65.0833 48.1666 63.0865 48.1666 60.6458V17.75L30.4166 0Z" fill="white"/>
</mask>
<g mask="url(#mask6)">
<path d="M34.8541 17.75C32.4024 17.75 30.4166 15.7642 30.4166 13.3125V13.6823C30.4166 16.134 32.4024 18.1198 34.8541 18.1198H48.1666V17.75H34.8541Z" fill="#263238" fill-opacity="0.1"/>
</g>
<defs>
<linearGradient id="paint0_linear" x1="39.9415" y1="17.8643" x2="39.9415" y2="32.9027" gradientUnits="userSpaceOnUse">
<stop stop-color="#263238" stop-opacity="0.2"/>
<stop offset="1" stop-color="#263238" stop-opacity="0.02"/>
</linearGradient>
</defs>
</svg>
