<svg width="21" height="20" viewBox="0 0 21 20" fill="none" xmlns="http://www.w3.org/2000/svg">
    <path d="M10.5 4.68433C12.1274 4.68433 13.2251 5.38733 13.8511 5.97475L16.2971 3.58659C14.7948 2.19025 12.84 1.33325 10.5 1.33325C7.1104 1.33325 4.18298 3.27842 2.75781 6.1095L5.55998 8.28584C6.26298 6.19617 8.20815 4.68433 10.5 4.68433Z" fill="#EA4335"/>
    <path d="M18.82 10.1925C18.82 9.4799 18.7623 8.9599 18.637 8.42065H10.5V11.6369H15.2763C15.18 12.4362 14.66 13.6399 13.5044 14.4487L16.2393 16.5673C17.8763 15.0554 18.82 12.831 18.82 10.1925Z" fill="#4285F4"/>
    <path d="M5.56964 11.7141C5.38664 11.1749 5.28073 10.597 5.28073 10C5.28073 9.40295 5.38665 8.8252 5.55998 8.28595L2.75773 6.10962C2.1704 7.28445 1.83331 8.6037 1.83331 10C1.83331 11.3963 2.1704 12.7156 2.75773 13.8904L5.56964 11.7141Z" fill="#FBBC05"/>
    <path d="M10.5 18.6667C12.84 18.6667 14.8045 17.8964 16.2393 16.5674L13.5045 14.4489C12.7726 14.9593 11.7904 15.3156 10.5 15.3156C8.20821 15.3156 6.26304 13.8037 5.56971 11.7141L2.76746 13.8904C4.19262 16.7215 7.11037 18.6667 10.5 18.6667Z" fill="#34A853"/>
</svg>
