<svg width="47" height="65" viewBox="0 0 47 65" fill="none" xmlns="http://www.w3.org/2000/svg">
<mask id="mask0" mask-type="alpha" maskUnits="userSpaceOnUse" x="0" y="0" width="47" height="65">
<path d="M29.375 0H4.40625C1.98281 0 0 1.99432 0 4.43182V60.5682C0 63.0057 1.98281 65 4.40625 65H42.5938C45.0172 65 47 63.0057 47 60.5682V17.7273L29.375 0Z" fill="white"/>
</mask>
<g mask="url(#mask0)">
<path d="M29.375 0H4.40625C1.98281 0 0 1.99432 0 4.43182V60.5682C0 63.0057 1.98281 65 4.40625 65H42.5938C45.0172 65 47 63.0057 47 60.5682V17.7273L36.7188 10.3409L29.375 0Z" fill="#4285F4"/>
</g>
<mask id="mask1" mask-type="alpha" maskUnits="userSpaceOnUse" x="0" y="0" width="47" height="65">
<path d="M29.375 0H4.40625C1.98281 0 0 1.99432 0 4.43182V60.5682C0 63.0057 1.98281 65 4.40625 65H42.5938C45.0172 65 47 63.0057 47 60.5682V17.7273L29.375 0Z" fill="white"/>
</mask>
<g mask="url(#mask1)">
<path d="M30.6638 16.431L47 32.8582V17.7273L30.6638 16.431Z" fill="url(#paint0_linear)"/>
</g>
<mask id="mask2" mask-type="alpha" maskUnits="userSpaceOnUse" x="0" y="0" width="47" height="65">
<path d="M29.375 0H4.40625C1.98281 0 0 1.99432 0 4.43182V60.5682C0 63.0057 1.98281 65 4.40625 65H42.5938C45.0172 65 47 63.0057 47 60.5682V17.7273L29.375 0Z" fill="white"/>
</mask>
<g mask="url(#mask2)">
<path d="M11.75 47.2727H35.25V44.3182H11.75V47.2727ZM11.75 53.1818H29.375V50.2273H11.75V53.1818ZM11.75 32.5V35.4545H35.25V32.5H11.75ZM11.75 41.3636H35.25V38.4091H11.75V41.3636Z" fill="#F1F1F1"/>
</g>
<mask id="mask3" mask-type="alpha" maskUnits="userSpaceOnUse" x="0" y="0" width="47" height="65">
<path d="M29.375 0H4.40625C1.98281 0 0 1.99432 0 4.43182V60.5682C0 63.0057 1.98281 65 4.40625 65H42.5938C45.0172 65 47 63.0057 47 60.5682V17.7273L29.375 0Z" fill="white"/>
</mask>
<g mask="url(#mask3)">
<path d="M29.375 0V13.2955C29.375 15.744 31.3468 17.7273 33.7812 17.7273H47L29.375 0Z" fill="#A1C2FA"/>
</g>
<mask id="mask4" mask-type="alpha" maskUnits="userSpaceOnUse" x="0" y="0" width="47" height="65">
<path d="M29.375 0H4.40625C1.98281 0 0 1.99432 0 4.43182V60.5682C0 63.0057 1.98281 65 4.40625 65H42.5938C45.0172 65 47 63.0057 47 60.5682V17.7273L29.375 0Z" fill="white"/>
</mask>
<g mask="url(#mask4)">
<path d="M4.40625 0C1.98281 0 0 1.99432 0 4.43182V4.80114C0 2.36364 1.98281 0.369318 4.40625 0.369318H29.375V0H4.40625Z" fill="white" fill-opacity="0.2"/>
</g>
<mask id="mask5" mask-type="alpha" maskUnits="userSpaceOnUse" x="0" y="0" width="47" height="65">
<path d="M29.375 0H4.40625C1.98281 0 0 1.99432 0 4.43182V60.5682C0 63.0057 1.98281 65 4.40625 65H42.5938C45.0172 65 47 63.0057 47 60.5682V17.7273L29.375 0Z" fill="white"/>
</mask>
<g mask="url(#mask5)">
<path d="M42.5938 64.6307H4.40625C1.98281 64.6307 0 62.6364 0 60.1989V60.5682C0 63.0057 1.98281 65 4.40625 65H42.5938C45.0172 65 47 63.0057 47 60.5682V60.1989C47 62.6364 45.0172 64.6307 42.5938 64.6307Z" fill="#1A237E" fill-opacity="0.2"/>
</g>
<mask id="mask6" mask-type="alpha" maskUnits="userSpaceOnUse" x="0" y="0" width="47" height="65">
<path d="M29.375 0H4.40625C1.98281 0 0 1.99432 0 4.43182V60.5682C0 63.0057 1.98281 65 4.40625 65H42.5938C45.0172 65 47 63.0057 47 60.5682V17.7273L29.375 0Z" fill="white"/>
</mask>
<g mask="url(#mask6)">
<path d="M33.7812 17.7273C31.3468 17.7273 29.375 15.744 29.375 13.2955V13.6648C29.375 16.1134 31.3468 18.0966 33.7812 18.0966H47V17.7273H33.7812Z" fill="#1A237E" fill-opacity="0.1"/>
</g>
<defs>
    <linearGradient id="paint0_linear" x1="38.8328" y1="17.8414" x2="38.8328" y2="32.8605" gradientUnits="userSpaceOnUse">
    <stop stop-color="#1A237E" stop-opacity="0.2"/>
    <stop offset="1" stop-color="#1A237E" stop-opacity="0.02"/>
    </linearGradient>
</defs>
</svg>
