<svg width="190" height="190" viewBox="0 0 190 190" fill="none" xmlns="http://www.w3.org/2000/svg">
<g clip-path="url(#clip0)">
<g clip-path="url(#clip1)">
<path d="M85.6389 60.0878C78.6669 52.8835 76.1105 43.3551 83.8959 36.9641C96.3293 26.5061 105.044 19.1855 109.808 15.0024C117.361 8.37898 125.612 11.5164 132.119 19.0693C138.626 26.6223 141.299 35.9183 133.629 42.4255C128.749 46.7249 119.802 54.2779 107.136 64.852C102.604 68.6866 93.6567 68.338 85.6389 60.0878Z" fill="#3D3E67"/>
<path d="M8.36669 123.998C3.2539 118.652 1.39471 110.751 7.08849 105.987C7.66949 105.522 50.7796 70.3133 83.0831 43.2388C88.7769 38.4746 94.8192 41.1472 99.5834 46.7248C104.348 52.3024 105.974 58.9257 100.281 63.6899C67.8609 90.9969 24.6346 126.322 24.0536 126.786C21.6135 128.762 14.6415 130.621 8.36669 123.998Z" fill="#696DFF"/>
<path d="M3.60203 127.713C-0.232558 123.762 -1.62695 118.65 2.67243 115.047L4.76403 113.304C8.94722 109.702 13.3628 111.329 16.965 115.512C20.5672 119.695 21.9616 124.692 17.7784 128.294L15.3382 130.386C12.898 132.361 7.90142 132.245 3.60203 127.713Z" fill="#3D3E67"/>
<path d="M10.121 126.66C10.935 125.934 10.4517 124.064 9.04142 122.484C7.63119 120.904 5.82811 120.212 5.01413 120.938C4.20014 121.665 4.6835 123.535 6.09373 125.115C7.50397 126.695 9.30705 127.387 10.121 126.66Z" fill="#DDE6EB"/>
<path d="M94.3542 33.4766C96.3295 33.128 98.4211 33.3604 100.28 34.0576C102.14 34.7548 103.883 35.8006 105.277 37.195C106.788 38.4732 108.066 39.8675 109.112 41.4943C110.157 43.1211 110.971 44.9803 111.319 46.8395C111.319 47.0719 111.203 47.3043 110.971 47.4205C110.854 47.4205 110.738 47.4205 110.622 47.3043C109.228 46.0261 108.066 44.7479 106.788 43.5859C105.509 42.4239 104.347 41.1457 103.069 39.9837C101.791 38.8218 100.513 37.776 99.1183 36.8464C97.7239 35.9168 96.0972 35.2196 94.4704 34.6386C94.1218 34.5224 94.0056 34.1738 94.1218 33.9414C94.0056 33.709 94.1218 33.5928 94.3542 33.4766Z" fill="#DDE6EB"/>
<path d="M112.598 17.7887C114.341 17.4401 116.084 17.4401 117.711 18.0211C119.337 18.4859 120.848 19.2993 122.242 20.3451C123.521 21.2747 124.799 22.5529 125.728 23.8311C126.658 25.2255 127.355 26.7361 127.82 28.3629C127.936 28.5953 127.704 28.8277 127.471 28.9439C127.355 28.9439 127.239 28.9439 127.123 28.9439C125.845 28.1305 124.566 27.2009 123.404 26.1551C122.242 25.2255 121.197 24.2959 120.035 23.3663C118.873 22.4367 117.711 21.6233 116.549 20.9261C115.27 20.2289 113.992 19.5317 112.598 19.0669C112.249 18.9507 112.133 18.6021 112.249 18.3697C112.365 18.0211 112.482 17.7887 112.598 17.7887Z" fill="#DDE6EB"/>
<path d="M144.204 41.1452V39.5184C144.204 38.8212 143.972 38.124 143.507 37.543C144.204 38.4726 144.204 40.9128 142.229 42.772C142.112 42.8882 142.112 42.8882 141.996 43.0044C134.676 49.2791 123.52 58.6913 108.879 70.8923L108.531 71.2409C107.834 71.8219 107.136 72.0543 106.439 71.3571L103.767 68.9169L103.65 68.8007C103.069 68.3359 102.953 67.4063 103.418 66.8253C103.186 67.1739 102.837 67.5225 102.721 67.9873C102.256 69.1493 102.024 70.5437 102.14 71.8219V72.1705C102.14 74.2621 102.14 75.424 104.696 77.6318C105.393 78.4452 106.323 78.91 107.369 79.0262C108.531 79.0262 109.577 78.2128 111.319 76.7022L111.668 76.3536C124.334 65.7795 134.211 57.5293 141.067 51.6031C141.299 51.3707 141.531 51.2545 141.648 51.0221C143.042 49.7439 144.204 48.5819 144.204 47.0713V41.1452Z" fill="#4D4D81"/>
<path d="M103.534 68.802L103.65 68.9182L106.323 71.3584C107.136 72.0556 107.833 71.707 108.414 71.2422L108.763 70.8936C123.404 58.6926 134.559 49.2804 141.88 43.0057C141.996 42.8895 141.996 42.8895 142.112 42.7733C144.088 40.9141 144.088 38.3577 143.39 37.5443C143.042 36.9633 142.577 36.4985 142.112 36.0337C141.996 35.9175 141.88 35.8013 141.764 35.8013L135.837 30.8047L129.911 35.4527L134.792 39.7521L129.911 43.8191C123.636 49.1642 114.108 57.182 104.463 65.1998C104.115 65.5484 103.766 65.897 103.418 66.2456C103.301 66.3618 103.185 66.478 103.069 66.5942C102.488 67.1752 102.488 68.1048 103.069 68.5696C103.418 68.6858 103.534 68.6858 103.534 68.802Z" fill="#696DFF"/>
<path d="M130.144 35.4531V43.8195L135.024 39.7525L130.144 35.4531Z" fill="#4D4D81"/>
<path d="M103.302 66.708C103.418 66.5918 103.535 66.4756 103.651 66.3594C103.535 66.4756 103.418 66.5918 103.302 66.708Z" fill="#696DFF"/>
<path d="M55.4273 88.9023L51.3604 92.2721C52.1737 93.5503 52.8709 94.8285 53.3357 96.2229L57.2865 92.9693C56.9379 91.4587 56.2407 90.0643 55.4273 88.9023Z" fill="#4D4D81"/>
<path d="M88.7763 61.3633L80.7585 67.9867C81.5719 69.2649 82.2691 70.5431 82.7339 71.9375L90.5193 65.5465C90.2869 63.9197 89.5897 62.5253 88.7763 61.3633Z" fill="#4D4D81"/>
<path d="M77.5053 70.6602L58.6809 86.1147C59.4943 87.2767 60.1915 88.5549 60.7725 89.9493L79.2482 74.7271C78.8997 73.3327 78.3187 71.9384 77.5053 70.6602Z" fill="#4D4D81"/>
</g>
<path d="M70.0954 170.251L185.883 75.198C186.397 74.7351 186.705 74.149 186.826 73.521L187.12 70.967C187.12 70.967 187.173 62.0411 178.493 60.294L175.005 60.5931C174.48 60.6299 173.909 60.8489 173.544 61.1911L57.841 156.224C50.1568 162.559 61.8312 177.149 70.0954 170.251Z" fill="#696DFF"/>
<path d="M60.7294 156.405C62.1151 155.482 63.8402 155.251 65.4449 155.649C67.0496 156.046 68.477 156.827 69.6428 158.012C70.7897 159.116 71.5716 160.562 71.8474 162.126C72.1232 163.69 71.7052 165.331 70.6673 166.601C70.5176 166.722 70.3489 166.761 70.1422 166.638C70.0389 166.576 70.02 166.495 70.001 166.414C70.0731 165.197 69.9574 163.938 69.42 162.778C68.9859 161.679 68.3831 160.62 67.5651 159.782C66.7472 158.945 65.7794 158.227 64.6809 157.712C63.498 157.217 62.2876 156.985 61.0033 157.199C60.7502 157.258 60.5247 157.053 60.5711 156.871C60.5142 156.627 60.5796 156.526 60.7294 156.405Z" fill="#3D3E67"/>
<path d="M60.3488 162.679C59.4778 163.34 59.5498 164.843 60.5096 166.037C61.4694 167.23 62.9536 167.662 63.8245 167.001C64.6955 166.34 64.6235 164.837 63.6637 163.644C62.704 162.45 61.2198 162.019 60.3488 162.679Z" fill="#DDE6EB"/>
<path d="M77.3642 156.565L84.9407 150.348L83.2264 148.382L75.6499 154.6L77.3642 156.565Z" fill="#3D3E67"/>
<path d="M88.2277 147.597L107.701 131.617L105.986 129.652L86.5134 145.631L88.2277 147.597Z" fill="#3D3E67"/>
<path d="M110.804 129.105L114.659 125.941L112.944 123.976L109.09 127.139L110.804 129.105Z" fill="#3D3E67"/>
<path d="M175.886 60.559C184.565 62.3061 186.981 72.2846 186.981 72.2846L188.27 62.5562C188.473 61.1376 187.373 59.8515 185.909 59.6785C185.722 59.6366 185.553 59.6759 185.384 59.7153L175.886 60.559Z" fill="#DDE6EB"/>
<g clip-path="url(#clip2)">
<path d="M179.624 143.593C179.514 142.298 178.941 141.073 177.939 140.143L177.888 140.083L173.164 135.46L172.478 134.839C170.635 133.106 169.49 132.498 166.425 134.731L166.116 134.981C163.65 136.933 160.637 139.226 157.686 141.469L167.922 151.456C168.164 151.311 168.355 151.105 168.597 150.96C169.272 150.463 169.946 149.966 170.678 149.475C171.352 148.978 172.084 148.487 172.815 147.995C174.216 147.063 175.679 146.08 177.183 145.268C177.307 145.168 177.472 145.239 177.575 145.36C177.622 145.476 177.611 145.587 177.545 145.692C176.345 146.923 175.042 148.032 173.739 149.141C173.06 149.693 172.437 150.251 171.762 150.747C171.087 151.244 170.408 151.796 169.728 152.348C169.419 152.599 169.053 152.845 168.744 153.096L165.194 161.874L163.726 162.912C166.368 160.921 169.072 158.879 171.41 157.082L172.023 156.636C175.72 153.736 177.119 151.574 178.368 148.561C178.507 148.294 178.589 148.022 178.728 147.756C179.272 146.186 179.678 144.883 179.624 143.593Z" fill="#4D4D81"/>
<path d="M162.196 164.001L165.762 155.056C165.7 155.107 165.582 155.152 165.515 155.257C164.109 156.245 162.599 157.112 161.095 157.924C160.977 157.969 160.863 157.958 160.817 157.842C160.765 157.782 160.775 157.671 160.837 157.621C162.036 156.39 163.288 155.22 164.59 154.111C165.208 153.609 165.826 153.107 166.444 152.606L156.156 142.558L149.029 147.936L148.843 148.087C147.314 149.175 145.939 150.445 144.724 151.842C143.746 153.149 142.99 154.531 142.451 156.046C142.312 156.312 142.23 156.584 142.091 156.851C142.019 157.012 141.947 157.173 141.875 157.334C140.848 159.809 140.191 161.982 143.03 164.7L143.082 164.761L148.016 169.57C148.899 170.545 150.168 171.052 151.493 170.95C152.936 170.804 154.28 169.866 155.444 169.023L155.877 168.672C158.086 167.031 160.852 164.939 163.674 162.852L162.196 164.001ZM154.995 164.569C154.893 165.062 154.733 165.551 154.518 166.033C154.302 166.516 154.091 166.944 153.823 167.366C153.551 167.844 153.227 168.261 152.794 168.612C152.67 168.713 152.5 168.697 152.392 168.631C152.34 168.571 152.289 168.51 152.294 168.455C152.288 167.895 152.334 167.397 152.441 166.848C152.544 166.355 152.703 165.867 152.862 165.379C153.021 164.891 153.294 164.413 153.561 163.991C153.834 163.513 154.215 163.101 154.647 162.75C154.771 162.65 154.941 162.665 154.988 162.781C154.982 162.837 155.039 162.842 155.034 162.897C155.148 163.522 155.154 164.081 154.995 164.569ZM158.762 159.665C158.258 160.177 157.701 160.628 157.099 160.964C156.378 161.345 155.512 161.433 154.728 161.249C154.558 161.234 154.336 161.157 154.171 161.087C154.006 161.016 153.784 160.939 153.619 160.868C153.289 160.726 152.964 160.529 152.695 160.337C152.102 159.947 151.57 159.507 151.039 159.068C150.032 158.193 149.031 157.264 148.148 156.289C147.265 155.315 146.392 154.229 145.695 153.104C145.648 152.988 145.659 152.877 145.782 152.777C145.844 152.727 145.957 152.737 146.009 152.798C147.144 153.516 148.218 154.285 149.281 155.164C150.292 155.983 151.294 156.913 152.243 157.782C152.507 158.029 152.718 158.216 152.987 158.409C153.255 158.601 153.467 158.788 153.73 159.035C153.993 159.283 154.215 159.359 154.483 159.551C154.591 159.617 154.757 159.688 154.865 159.754C154.973 159.82 155.082 159.885 155.252 159.901C155.747 160.114 156.319 160.111 156.788 159.986C157.376 159.817 157.973 159.536 158.571 159.256C158.689 159.211 158.86 159.227 158.901 159.398C158.891 159.509 158.881 159.62 158.762 159.665Z" fill="#696DFF"/>
<path d="M164.539 154.048C163.236 155.157 161.985 156.327 160.785 157.558C160.723 157.608 160.713 157.719 160.765 157.779C160.811 157.895 160.925 157.906 161.043 157.861C162.604 157.054 164.057 156.182 165.463 155.194C165.525 155.144 165.643 155.099 165.71 154.993L162.144 163.938L163.679 162.794L165.09 161.751L168.636 153.027C168.945 152.777 169.31 152.531 169.619 152.28C170.294 151.783 170.974 151.231 171.653 150.679C172.333 150.127 172.951 149.625 173.631 149.073C174.934 147.964 176.237 146.855 177.436 145.624C177.503 145.519 177.513 145.408 177.467 145.292C177.363 145.171 177.255 145.105 177.075 145.2C175.565 146.067 174.108 146.995 172.707 147.927C171.975 148.419 171.301 148.915 170.569 149.407C169.838 149.898 169.163 150.395 168.488 150.892C168.246 151.037 168.056 151.243 167.814 151.388L157.691 141.411L156.156 142.555L166.392 152.542C165.774 153.044 165.157 153.546 164.539 154.048Z" fill="#3D3E67"/>
<path d="M158.457 159.244C157.859 159.525 157.267 159.749 156.674 159.974C156.149 160.094 155.633 160.102 155.138 159.889C155.029 159.823 154.859 159.808 154.751 159.742C154.643 159.676 154.478 159.605 154.369 159.539C154.101 159.347 153.884 159.216 153.616 159.024C153.347 158.831 153.136 158.644 152.873 158.397C152.609 158.149 152.393 158.018 152.129 157.77C151.18 156.901 150.173 156.027 149.167 155.153C148.16 154.278 147.03 153.504 145.895 152.786C145.844 152.725 145.73 152.715 145.668 152.765C145.55 152.81 145.535 152.976 145.581 153.092C146.335 154.223 147.156 155.247 148.034 156.277C148.917 157.252 149.913 158.237 150.925 159.056C151.456 159.496 151.988 159.935 152.581 160.325C152.906 160.522 153.175 160.715 153.505 160.857C153.67 160.928 153.892 161.004 154.057 161.075C154.222 161.146 154.444 161.222 154.614 161.238C155.398 161.421 156.264 161.333 156.985 160.952C157.588 160.617 158.2 160.17 158.648 159.653C158.715 159.547 158.725 159.436 158.674 159.376C158.741 159.27 158.632 159.204 158.457 159.244Z" fill="#3D3E67"/>
<path d="M154.982 162.835C154.879 162.714 154.709 162.699 154.642 162.804C154.209 163.156 153.829 163.567 153.556 164.045C153.288 164.467 153.016 164.945 152.857 165.433C152.698 165.921 152.538 166.409 152.436 166.903C152.328 167.451 152.283 167.95 152.289 168.509C152.284 168.564 152.335 168.625 152.387 168.685C152.49 168.807 152.66 168.822 152.784 168.722C153.16 168.365 153.484 167.948 153.813 167.476C154.081 167.053 154.297 166.571 154.507 166.143C154.723 165.66 154.882 165.172 154.985 164.679C155.092 164.13 155.143 163.576 155.019 163.062C155.029 162.951 155.034 162.896 154.982 162.835Z" fill="#3D3E67"/>
</g>
</g>
<defs>
<clipPath id="clip0">
<rect width="190" height="190" fill="white"/>
</clipPath>
<clipPath id="clip1">
<rect width="144.32" height="120.15" fill="white" transform="translate(0 11.3984)"/>
</clipPath>
<clipPath id="clip2">
<rect width="36.9056" height="39.2122" fill="white" transform="translate(143.778 130.977) rotate(5.24107)"/>
</clipPath>
</defs>
</svg>
