<svg width="21" height="20" viewBox="0 0 21 20" fill="none" xmlns="http://www.w3.org/2000/svg">
<path fill-rule="evenodd" clip-rule="evenodd" d="M10.643 3.25007C10.9506 3.25007 11.204 3.25083 11.4168 3.25437C11.4176 3.90941 11.4245 4.46554 11.4786 4.9232C11.5437 5.47409 11.6861 5.97903 12.0409 6.41139C12.1552 6.55063 12.2828 6.67831 12.4221 6.79259C12.8544 7.14741 13.3594 7.28976 13.9103 7.35488C14.3679 7.40897 14.924 7.41583 15.579 7.41669C15.5826 7.62943 15.5833 7.8828 15.5833 8.19043V11.6667C15.5833 13.02 15.5819 13.9637 15.4908 14.6795C15.4022 15.3762 15.2395 15.7503 14.9922 16.0201C14.948 16.0684 14.9017 16.1147 14.8534 16.1589C14.5836 16.4062 14.2094 16.5689 13.5128 16.6575C12.797 16.7486 11.8533 16.7501 10.5 16.7501C9.14674 16.7501 8.20301 16.7486 7.48718 16.6575C6.79056 16.5689 6.41642 16.4062 6.14658 16.1589C6.09832 16.1147 6.05201 16.0684 6.00779 16.0201C5.76052 15.7503 5.59783 15.3762 5.50918 14.6796C5.41809 13.9637 5.41666 13.02 5.41666 11.6667V8.39263C5.41666 7.01023 5.41814 6.04615 5.5129 5.31623C5.60506 4.60633 5.77399 4.22693 6.03155 3.95446C6.06054 3.92379 6.09038 3.89395 6.12105 3.86496C6.39352 3.6074 6.77292 3.43847 7.48282 3.34631C8.21274 3.25155 9.17682 3.25007 10.5592 3.25007H10.643ZM14.1363 4.69707C14.7754 5.33616 15.0787 5.6487 15.2546 5.91535C14.7621 5.912 14.3892 5.90105 14.0863 5.86525C13.6771 5.81687 13.4945 5.73222 13.3737 5.63307C13.3104 5.58113 13.2523 5.52309 13.2004 5.4598C13.1012 5.33898 13.0166 5.1564 12.9682 4.74712C12.9324 4.44423 12.9215 4.07132 12.9181 3.57888C13.1848 3.75479 13.4973 4.05803 14.1363 4.69707ZM10.7708 1.75003C11.7458 1.74962 12.4225 1.74933 13.0509 1.98022C13.146 2.01518 13.2396 2.05397 13.3316 2.09652C13.9392 2.37753 14.4175 2.85627 15.1066 3.54599L15.197 3.63641L15.2874 3.72678C15.9771 4.4159 16.4559 4.89423 16.7369 5.50177C16.7794 5.59375 16.8182 5.68742 16.8532 5.78255C17.0841 6.41085 17.0838 7.0876 17.0834 8.06259L17.0833 8.19043V11.6667V11.7183C17.0833 13.0078 17.0834 14.0473 16.9788 14.8689C16.8704 15.7206 16.639 16.4432 16.0981 17.0335C16.0244 17.114 15.9472 17.1912 15.8668 17.2649C15.2765 17.8058 14.5539 18.0372 13.7022 18.1455C12.8806 18.2501 11.8411 18.2501 10.5516 18.2501H10.5H10.4484C9.15889 18.2501 8.11941 18.2501 7.29782 18.1455C6.44609 18.0372 5.72349 17.8058 5.1332 17.2649C5.05276 17.1912 4.97558 17.114 4.90187 17.0335C4.36097 16.4432 4.12957 15.7206 4.02118 14.8689C3.91663 14.0473 3.91664 13.0078 3.91666 11.7183L3.91666 11.6667V8.39263L3.91666 8.33986C3.91664 7.02267 3.91663 5.96089 4.02538 5.12312C4.13819 4.25417 4.37919 3.5189 4.94148 2.92405C4.98979 2.87294 5.03953 2.8232 5.09064 2.77489C5.68549 2.2126 6.42076 1.9716 7.28971 1.85879C8.12748 1.75004 9.18926 1.75005 10.5065 1.75007L10.5592 1.75007H10.643L10.7708 1.75003ZM11.25 9.58348C11.25 9.16927 10.9142 8.83348 10.5 8.83348C10.0858 8.83348 9.74999 9.16927 9.74999 9.58348V10.9168H8.41666C8.00245 10.9168 7.66666 11.2526 7.66666 11.6668C7.66666 12.081 8.00245 12.4168 8.41666 12.4168H9.74999V13.7501C9.74999 14.1644 10.0858 14.5001 10.5 14.5001C10.9142 14.5001 11.25 14.1644 11.25 13.7501V12.4168H12.5833C12.9975 12.4168 13.3333 12.081 13.3333 11.6668C13.3333 11.2526 12.9975 10.9168 12.5833 10.9168H11.25V9.58348Z" fill="#69819D"/>
</svg>
